<svg width="200" height="43" viewBox="0 0 200 43" fill="none" xmlns="http://www.w3.org/2000/svg">
<g clip-path="url(#clip0_1723_515)">
<path d="M52.3583 0.18219H50.5139V42.8179H52.3583V0.18219Z" fill="#051E50"/>
<path d="M42.0225 19.5685V24.8372L39.9213 26.9632L39.5928 27.2946L38.2026 28.7002L37.2201 29.6944L35.7729 31.1569L34.5181 32.4256L34.3827 32.288V32.5625L31.9523 35.0192H31.6815L31.8169 35.1568L30.5621 36.4256L29.1157 37.8888L28.1324 38.8822L26.7422 40.2879L26.4144 40.62L24.3125 42.7445H17.7107L15.6088 40.62L13.8901 38.8822L12.9076 37.8888L11.4604 36.4256L10.2056 35.1568L7.64052 32.5625L7.50439 32.4256L6.24959 31.1569L4.80316 29.6944L3.81989 28.7002L2.4297 27.2946H13.2353L21.0112 35.1568L24.9673 31.1569L26.4144 29.6944L26.7422 29.3623L28.7872 27.2946L29.1157 26.9632L30.5621 25.5L32.6078 23.4315H0V19.5685H0.190884L0 19.3747V18.1621L2.10194 16.0376L2.4297 15.7054L3.81989 14.2998L4.80316 13.3064L6.24959 11.8431L7.50439 10.5744L7.64052 10.7113V10.4375L10.0702 7.98084H10.3417L10.2056 7.8432L11.4604 6.57446L12.9076 5.11198L13.8901 4.11779L15.281 2.71216L15.6088 2.38077L17.7107 0.255493H24.3125L39.5928 15.7054H28.7872L26.7422 13.6378L24.9673 11.8431L23.7125 10.5744L22.9216 9.77472L21.1474 7.98084L21.0112 7.8432L20.8759 7.98084L19.1009 9.77472L18.31 10.5744L17.0552 11.8431L15.6088 13.3064L15.281 13.6378L13.2353 15.7054L12.9076 16.0376L11.4604 17.5001L10.2056 18.7688L9.41544 19.5685H42.0225Z" fill="#039587"/>
<path d="M63.6209 30.5697V36.4591H65.9188V38.0508H61.5634V30.5697H63.6209Z" fill="#051E50"/>
<path d="M68.8889 32.0245C69.7285 32.0245 70.3167 32.3946 70.6206 32.9252V32.0985H72.6781V38.0508H70.6206V37.2228C70.3167 37.7534 69.7175 38.1248 68.8889 38.1248C67.4928 38.1248 66.3823 36.9687 66.3823 35.0746C66.3823 33.1806 67.4928 32.0245 68.8889 32.0245ZM69.5552 33.8408C68.967 33.8408 68.485 34.2652 68.485 35.0746C68.485 35.8841 68.9621 36.3085 69.5552 36.3085C70.1483 36.3085 70.6254 35.873 70.6254 35.0672C70.6254 34.2615 70.1275 33.8408 69.5552 33.8408Z" fill="#051E50"/>
<path d="M76.0466 33.8272H75.4132V32.0998H76.0527V32.0467C76.0527 30.4019 77.1131 29.553 79.023 29.6912V31.4631C78.4043 31.3989 78.1516 31.5692 78.1199 32.0998H79.0437V33.8272H78.1199V38.0508H76.0466V33.8272Z" fill="#051E50"/>
<path d="M81.9443 32.0245C82.7839 32.0245 83.3721 32.3946 83.6759 32.9252V32.0985H85.7334V38.0508H83.6759V37.2228C83.3721 37.7534 82.7729 38.1248 81.9443 38.1248C80.5482 38.1248 79.4365 36.9687 79.4365 35.0697C79.4365 33.1708 80.5482 32.0245 81.9443 32.0245ZM82.6057 33.8383C82.0175 33.8383 81.5354 34.2628 81.5354 35.0722C81.5354 35.8816 82.0236 36.3135 82.6057 36.3135C83.1878 36.3135 83.6759 35.8779 83.6759 35.0722C83.6759 34.2665 83.1829 33.8408 82.6057 33.8408V33.8383Z" fill="#051E50"/>
<path d="M90.6866 32.0245C92.0925 32.0245 93.1944 33.1696 93.1944 35.0698C93.1944 36.9699 92.0961 38.1249 90.6866 38.1249C89.858 38.1249 89.2808 37.7646 88.966 37.2229V38.0508H86.9084V30.1984H88.966V32.9253C89.2808 32.3848 89.8678 32.0245 90.6866 32.0245ZM90.0362 33.8383C89.459 33.8383 88.966 34.2739 88.966 35.0722C88.966 35.8705 89.4541 36.3135 90.0362 36.3135C90.6183 36.3135 91.1064 35.8681 91.1064 35.0722C91.1064 34.2764 90.6134 33.8408 90.0362 33.8408V33.8383Z" fill="#051E50"/>
<path d="M96.1025 38.0507H94.045V32.0985H96.1025V33.1485C96.5431 32.5007 97.2143 32.0454 98.0014 32.0454V34.2664H97.4242C96.5699 34.2664 96.1025 34.5428 96.1025 35.4546V38.0507Z" fill="#051E50"/>
<path d="M98.5678 30.4846C98.5678 29.88 99.0401 29.4025 99.7747 29.4025C100.509 29.4025 100.972 29.88 100.972 30.4846C100.972 31.0893 100.5 31.547 99.7747 31.547C99.0498 31.547 98.5678 31.0794 98.5678 30.4846ZM98.7362 32.0986H100.796V38.0508H98.7386L98.7362 32.0986Z" fill="#051E50"/>
<path d="M104.613 32.0245C106.103 32.0245 107.195 32.8882 107.488 34.38H105.311C105.189 34.0184 104.965 33.7963 104.579 33.7963C104.075 33.7963 103.739 34.2208 103.739 35.0697C103.739 35.9186 104.075 36.353 104.579 36.353C104.967 36.353 105.198 36.1407 105.311 35.7693H107.493C107.2 37.25 106.108 38.1248 104.618 38.1248C102.866 38.1248 101.638 36.9687 101.638 35.0697C101.638 33.1708 102.861 32.0245 104.613 32.0245Z" fill="#051E50"/>
<path d="M110.511 32.0245C111.351 32.0245 111.939 32.3946 112.243 32.9252V32.0985H114.3V38.0508H112.243V37.2228C111.939 37.7534 111.341 38.1248 110.511 38.1248C109.115 38.1248 108.003 36.9687 108.003 35.0697C108.003 33.1708 109.115 32.0245 110.511 32.0245ZM111.169 33.8408C110.581 33.8408 110.099 34.2652 110.099 35.0746C110.099 35.8841 110.587 36.3159 111.169 36.3159C111.751 36.3159 112.239 35.8804 112.239 35.0746C112.239 34.2689 111.75 33.8408 111.169 33.8408Z" fill="#051E50"/>
<path d="M115.806 33.8273H115.074V32.0998H115.806V30.6562H117.881V32.0998H118.951V33.8273H117.881V35.8225C117.881 36.1408 118.017 36.279 118.363 36.279H118.961V38.0509H118.07C116.768 38.0509 115.812 37.4993 115.812 35.7904L115.806 33.8273Z" fill="#051E50"/>
<path d="M119.726 30.4846C119.726 29.88 120.198 29.4025 120.933 29.4025C121.668 29.4025 122.129 29.88 122.129 30.4846C122.129 31.0893 121.657 31.547 120.933 31.547C120.209 31.547 119.726 31.0794 119.726 30.4846ZM119.893 32.0986H121.951V38.0508H119.893V32.0986Z" fill="#051E50"/>
<path d="M125.866 38.1248C124.113 38.1248 122.79 36.9687 122.79 35.0697C122.79 33.1708 124.123 32.0245 125.875 32.0245C127.628 32.0245 128.962 33.1806 128.962 35.0697C128.962 36.9588 127.618 38.1248 125.866 38.1248ZM125.866 36.3209C126.39 36.3209 126.872 35.9285 126.872 35.0697C126.872 34.2109 126.4 33.8272 125.875 33.8272C125.351 33.8272 124.889 34.2208 124.889 35.0697C124.889 35.9186 125.325 36.3209 125.866 36.3209Z" fill="#051E50"/>
<path d="M133.81 34.8576C133.81 34.1679 133.432 33.7644 132.845 33.7644C132.234 33.7644 131.857 34.1679 131.857 34.8576V38.0509H129.801V32.0986H131.857V32.9475C132.06 32.6595 132.33 32.4265 132.643 32.2692C132.956 32.1119 133.303 32.035 133.652 32.0456C135.017 32.0456 135.866 33.0216 135.866 34.5812V38.0509H133.81V34.8576Z" fill="#051E50"/>
<path d="M141.513 38.1248C139.876 38.1248 138.784 37.234 138.7 36.0457H140.694C140.746 36.4381 141.072 36.6503 141.503 36.6503C141.848 36.6503 142.048 36.48 142.048 36.2678C142.048 35.3979 138.921 36.1086 138.921 33.9234C138.921 32.8833 139.775 32.0245 141.361 32.0245C142.948 32.0245 143.802 32.9252 143.942 34.1036H142.085C142.023 33.7334 141.76 33.5088 141.319 33.5088C140.983 33.5088 140.805 33.647 140.805 33.8704C140.805 34.7193 143.942 34.0394 143.953 36.2999C143.958 37.3401 143.034 38.1248 141.513 38.1248Z" fill="#051E50"/>
<path d="M150.99 38.0508H148.923V37.2019C148.586 37.7115 147.967 38.1039 147.138 38.1039C145.774 38.1039 144.923 37.1279 144.923 35.5572V32.1023H146.97V35.2956C146.97 35.9853 147.358 36.3888 147.946 36.3888C148.534 36.3888 148.923 35.9853 148.923 35.2956V32.0986H150.99V38.0508Z" fill="#051E50"/>
<path d="M154.223 38.0507H152.165V32.0985H154.223V33.1485C154.663 32.5007 155.334 32.0454 156.121 32.0454V34.2664H155.544C154.69 34.2664 154.223 34.5428 154.223 35.4546V38.0507Z" fill="#051E50"/>
<path d="M166.879 34.8574C166.879 34.2096 166.491 33.8494 165.902 33.8494C165.314 33.8494 164.926 34.2096 164.926 34.8574V38.0507H162.87V34.8574C162.87 34.2096 162.492 33.8494 161.905 33.8494C161.294 33.8494 160.917 34.2096 160.917 34.8574V38.0507H158.861V32.0985H160.917V32.8832C161.253 32.4057 161.83 32.0454 162.626 32.0454C163.507 32.0454 164.2 32.4477 164.588 33.1374C164.8 32.8055 165.091 32.5321 165.433 32.3415C165.776 32.1509 166.16 32.0492 166.55 32.0454C168.042 32.0454 168.934 33.0214 168.934 34.581V38.0507H166.876L166.879 34.8574Z" fill="#051E50"/>
<path d="M172.714 38.1248C170.971 38.1248 169.723 36.9687 169.723 35.0697C169.723 33.1708 170.951 32.0245 172.714 32.0245C174.456 32.0245 175.683 33.1597 175.683 35.0055C175.684 35.1706 175.673 35.3354 175.653 35.4991H171.759C171.8 36.1888 172.167 36.464 172.63 36.464C172.784 36.4697 172.937 36.4283 173.067 36.3451C173.198 36.2619 173.301 36.1408 173.362 35.9976H175.559C175.285 37.213 174.183 38.1248 172.714 38.1248ZM171.77 34.4861H173.584C173.584 33.9555 173.175 33.668 172.703 33.668C172.21 33.668 171.864 33.9444 171.77 34.4861Z" fill="#051E50"/>
<path d="M179.032 38.1248C177.394 38.1248 176.303 37.234 176.225 36.0457H178.219C178.272 36.4381 178.598 36.6503 179.027 36.6503C179.374 36.6503 179.573 36.48 179.573 36.2678C179.573 35.3979 176.446 36.1086 176.446 33.9234C176.446 32.8833 177.3 32.0245 178.887 32.0245C180.473 32.0245 181.328 32.9252 181.469 34.1036H179.612C179.548 33.7334 179.286 33.5088 178.845 33.5088C178.51 33.5088 178.33 33.647 178.33 33.8704C178.33 34.7193 181.469 34.0394 181.479 36.2999C181.476 37.3401 180.554 38.1248 179.032 38.1248Z" fill="#051E50"/>
<path d="M188.508 38.0508H186.441V37.2019C186.105 37.7115 185.487 38.1039 184.657 38.1039C183.292 38.1039 182.443 37.1279 182.443 35.5572V32.1023H184.489V35.2956C184.489 35.9853 184.878 36.3888 185.466 36.3888C186.054 36.3888 186.442 35.9853 186.442 35.2956V32.0986H188.509L188.508 38.0508Z" fill="#051E50"/>
<path d="M191.741 38.0507H189.684V32.0985H191.741V33.1485C192.181 32.5007 192.854 32.0454 193.641 32.0454V34.2664H193.063C192.209 34.2664 191.741 34.5428 191.741 35.4546V38.0507Z" fill="#051E50"/>
<path d="M197.03 38.1248C195.288 38.1248 194.04 36.9687 194.04 35.0697C194.04 33.1708 195.267 32.0245 197.03 32.0245C198.772 32.0245 200 33.1597 200 35.0055C200 35.1706 199.99 35.3355 199.968 35.4991H196.075C196.117 36.1888 196.484 36.464 196.947 36.464C197.101 36.4696 197.253 36.428 197.384 36.3449C197.514 36.2617 197.617 36.1407 197.679 35.9976H199.875C199.602 37.213 198.499 38.1248 197.03 38.1248ZM196.086 34.4861H197.901C197.901 33.9555 197.492 33.668 197.02 33.668C196.527 33.668 196.18 33.9444 196.086 34.4861Z" fill="#051E50"/>
<path d="M72.5706 6.09863H77.7889L71.721 23.9022H65.4527L59.3581 6.09863H64.6032L68.5998 18.9521L72.5706 6.09863Z" fill="#051E50"/>
<path d="M85.8337 24.0787C81.6654 24.0787 78.5154 21.3262 78.5154 16.8056C78.5154 12.311 81.6912 9.55853 85.8595 9.55853C90.0278 9.55853 93.2036 12.311 93.2036 16.8056C93.2016 21.3262 90.004 24.0787 85.8337 24.0787ZM85.8337 19.7859C87.0822 19.7859 88.2305 18.8517 88.2305 16.8056C88.2305 14.7856 87.107 13.8514 85.8585 13.8514C84.61 13.8514 83.5104 14.7856 83.5104 16.8056C83.5104 18.8517 84.5594 19.7859 85.8337 19.7859Z" fill="#051E50"/>
<path d="M95.1993 5.21454H100.095V23.9021H95.1993V5.21454Z" fill="#051E50"/>
<path d="M109.211 24.0787C105.065 24.0787 102.093 21.3262 102.093 16.8056C102.093 12.311 105.015 9.55853 109.211 9.55853C113.357 9.55853 116.279 12.2599 116.279 16.6541C116.279 17.0426 116.254 17.4308 116.205 17.8161H106.938C107.037 19.4577 107.913 20.114 109.011 20.114C109.96 20.114 110.485 19.5842 110.76 19.0032H115.98C115.33 21.9072 112.708 24.0787 109.211 24.0787ZM106.967 15.4168H111.288C111.288 14.1544 110.314 13.4721 109.19 13.4721C108.013 13.4721 107.188 14.1293 106.967 15.4168Z" fill="#051E50"/>
<path d="M119.052 13.8514H117.329V9.73717H119.052V6.30029H123.972V9.73516H126.518V13.8494H123.971V18.5968C123.971 19.3544 124.295 19.6825 125.12 19.6825H126.543V23.8971H124.42C121.323 23.8971 119.05 22.5836 119.05 18.5185L119.052 13.8514Z" fill="#051E50"/>
<path d="M140.207 24.0788C136.286 24.0788 133.239 22.1852 133.039 18.3721H138.259C138.358 19.7097 139.133 20.1643 140.032 20.1643C140.907 20.1643 141.581 19.7097 141.581 18.8768C141.556 16.0229 133.014 17.3616 133.089 11.1742C133.089 7.68914 135.961 5.82068 139.683 5.82068C143.729 5.82068 146.376 7.81557 146.551 11.3508H141.231C141.182 10.24 140.507 9.73521 139.608 9.73521C138.883 9.71012 138.309 10.1366 138.309 10.9976C138.309 13.6497 146.776 12.7908 146.776 18.4975C146.776 21.6293 144.382 24.0788 140.207 24.0788Z" fill="#051E50"/>
<path d="M149.823 13.8514H148.1V9.73717H149.823V6.30029H154.743V9.73516H157.291V13.8494H154.743V18.5968C154.743 19.3544 155.068 19.6825 155.893 19.6825H157.316V23.8971H155.193C152.096 23.8971 149.823 22.5836 149.823 18.5185V13.8514Z" fill="#051E50"/>
<path d="M166.083 24.0787C161.915 24.0787 158.765 21.3262 158.765 16.8056C158.765 12.311 161.941 9.55853 166.109 9.55853C170.277 9.55853 173.453 12.311 173.453 16.8056C173.451 21.3262 170.253 24.0787 166.083 24.0787ZM166.083 19.7859C167.332 19.7859 168.481 18.8517 168.481 16.8056C168.481 14.7856 167.356 13.8514 166.108 13.8514C164.859 13.8514 163.76 14.7856 163.76 16.8056C163.76 18.8517 164.809 19.7859 166.083 19.7859Z" fill="#051E50"/>
<path d="M180.344 23.902H175.446V9.73508H180.341V12.2347C181.39 10.6944 182.988 9.60864 184.862 9.60864V14.8869H183.489C181.465 14.8869 180.341 15.5432 180.341 17.7147L180.344 23.902Z" fill="#051E50"/>
<path d="M192.932 24.0787C188.786 24.0787 185.814 21.3262 185.814 16.8056C185.814 12.311 188.736 9.55853 192.932 9.55853C197.078 9.55853 200 12.2599 200 16.6541C200 17.0426 199.975 17.4308 199.926 17.8161H190.659C190.758 19.4577 191.634 20.114 192.732 20.114C193.681 20.114 194.206 19.5842 194.481 19.0032H199.701C199.051 21.9072 196.429 24.0787 192.932 24.0787ZM190.684 15.4168H195.005C195.005 14.1544 194.031 13.4721 192.907 13.4721C191.734 13.4721 190.909 14.1293 190.684 15.4168Z" fill="#051E50"/>
</g>
<defs>
<clipPath id="clip0_1723_515">
<rect width="200" height="42.6357" fill="white" transform="translate(0 0.18219)"/>
</clipPath>
</defs>
</svg>
